<?xml version="1.0" encoding="utf-8"?>
<!-- Generator: Adobe Illustrator 24.1.2, SVG Export Plug-In . SVG Version: 6.00 Build 0)  -->
<svg version="1.1" id="Layer_1" xmlns="http://www.w3.org/2000/svg" xmlns:xlink="http://www.w3.org/1999/xlink" x="0px" y="0px"
	 viewBox="0 0 186.4 128.4" style="enable-background:new 0 0 186.4 128.4;" xml:space="preserve">
<path d="M0.3,81.3c-0.2,0-0.4-0.3-0.4-0.5c0,0,0,0,0,0L1.1,75c0.5-2.9,3.3-4.9,6.2-4.4s4.9,3.3,4.4,6.2c0,0.1,0,0.2,0,0.2l-0.5,2.5
	l5.6,1c0.2,0.1,0.4,0.3,0.4,0.5l-0.5,2.8c0,0.2-0.3,0.4-0.5,0.4c0,0,0,0,0,0L0.3,81.3z M8.1,76.6c0.2-1-0.5-2-1.5-2.2c0,0,0,0,0,0
	c-1-0.2-1.9,0.5-2.1,1.5c0,0,0,0,0,0l-0.4,2.3l3.6,0.7L8.1,76.6z"/>
<path d="M17.6,73.8L5.1,61C5,60.9,5,60.7,5,60.5l0.1-0.2C5.2,60.1,5.3,60,5.5,60l17.9-1.3c0.2,0,0.5,0.1,0.5,0.4c0,0.1,0,0.2,0,0.2
	l-1,2.5c-0.1,0.4-0.4,0.5-0.9,0.6l-2.1,0.1l-2.3,6.2l1.5,1.5c0.3,0.2,0.4,0.6,0.3,1l-1,2.5c-0.1,0.2-0.3,0.3-0.5,0.3
	C17.8,73.9,17.7,73.9,17.6,73.8z M16.4,62.7L12,63l0,0l3.1,3.1L16.4,62.7z"/>
<path d="M14.1,42.6c1.1-1.9,2.9-3.2,5-3.8c0.2-0.1,0.5,0,0.6,0.3c0,0,0,0,0,0.1l0.7,2.6c0.1,0.2-0.1,0.4-0.3,0.5c0,0,0,0,0,0
	c-1.2,0.3-2.1,1.1-2.8,2.1c-1.1,2.5,0.1,5.5,2.6,6.6c2,0.9,4.4,0.3,5.8-1.3c0.6-1,0.9-2.2,0.7-3.4c0-0.2,0.1-0.5,0.4-0.5l2.7-0.5
	c0.3,0,0.5,0.1,0.5,0.4c0.5,2.1,0,4.4-1.1,6.2c-2.4,4.1-7.8,5.5-11.9,3.1c-4.1-2.4-5.5-7.8-3.1-11.9C13.9,42.9,14,42.7,14.1,42.6z"
	/>
<path d="M20.9,34.4c-0.2-0.2-0.2-0.5,0-0.7l1.9-2.2c0.2-0.2,0.5-0.2,0.6,0L35.5,42c0.2,0.2,0.2,0.5,0,0.7l-1.9,2.2
	c-0.2,0.2-0.5,0.2-0.7,0L20.9,34.4z"/>
<path d="M27.4,27.3c-0.2-0.2-0.2-0.5,0-0.7l7.5-6.7c0.2-0.2,0.5-0.2,0.7,0l1.8,2c0.2,0.2,0.2,0.5,0,0.7l-5,4.5l2.3,2.6l4.1-3.7
	c0.2-0.2,0.5-0.2,0.7,0l1.8,2c0.2,0.2,0.2,0.5,0,0.7l-4.1,3.7l3.9,4.4c0.2,0.2,0.2,0.5,0,0.7l-2.1,1.9c-0.2,0.2-0.5,0.2-0.7,0
	L27.4,27.3z"/>
<path d="M39.1,17.6c-0.1-0.2-0.1-0.5,0.1-0.6l2.4-1.6c0.2-0.1,0.5-0.1,0.6,0.1l9,13.2c0.1,0.2,0.1,0.5-0.1,0.6l-2.4,1.6
	c-0.2,0.1-0.5,0.1-0.6-0.1L39.1,17.6z"/>
<path d="M53.7,8.3c1.9-1,4.2-1.2,6.2-0.5c0.2,0.1,0.4,0.3,0.3,0.6c0,0,0,0,0,0L59.4,11c-0.1,0.2-0.3,0.3-0.5,0.3c0,0,0,0,0,0
	c-1.2-0.3-2.4-0.2-3.5,0.3c-2.4,1.3-3.4,4.2-2.1,6.7c1.2,2.3,4,3.3,6.4,2.2c1.1-0.5,1.9-1.4,2.4-2.4c0.1-0.2,0.4-0.3,0.6-0.2l2.6,1
	c0.2,0.1,0.3,0.4,0.3,0.6c-0.8,2.1-2.3,3.7-4.3,4.6c-4.3,2.1-9.5,0.2-11.6-4.1S49.4,10.4,53.7,8.3C53.7,8.3,53.7,8.3,53.7,8.3z"/>
<path d="M70.5,2.6c0-0.2,0.1-0.5,0.4-0.5L71.5,2l11,7.6l0,0l-1.3-8.5c0-0.2,0.1-0.5,0.4-0.5c0,0,0,0,0,0l2.8-0.5
	c0.2,0,0.5,0.1,0.5,0.4l2.6,16c0,0.2-0.1,0.5-0.4,0.5c0,0,0,0,0,0l-0.4,0.1c-0.1,0-0.2,0-0.3-0.1L75.5,9.1l0,0l1.4,8.9
	c0,0.2-0.1,0.5-0.3,0.5c0,0,0,0,0,0L73.7,19c-0.2,0-0.5-0.1-0.5-0.4L70.5,2.6z"/>
<path d="M99.4,0c4.8,0.3,8.4,4.5,8.1,9.3c-0.3,4.8-4.5,8.4-9.3,8.1c-4.8-0.3-8.4-4.5-8.1-9.3C90.4,3.4,94.6-0.3,99.4,0
	C99.4,0,99.4,0,99.4,0z M98.5,13.5c2.7,0.2,5-1.8,5.2-4.5s-1.8-5-4.5-5.2s-5,1.8-5.2,4.5c0,0,0,0,0,0.1C93.8,11,95.8,13.3,98.5,13.5
	z"/>
<path d="M113.5,2.6c0.1-0.2,0.3-0.4,0.6-0.3l6.9,2c2.8,0.7,4.4,3.6,3.6,6.3c-0.6,2.2-2.6,3.8-4.9,3.8l1.4,6.8
	c0.1,0.2-0.1,0.5-0.3,0.6c-0.1,0-0.2,0-0.3,0l-3.1-0.9c-0.2,0-0.3-0.2-0.3-0.3l-1.3-7l-1.6-0.5l-1.8,5.9c-0.1,0.2-0.3,0.4-0.6,0.3
	l-2.8-0.8c-0.2-0.1-0.4-0.3-0.3-0.6L113.5,2.6z M118.7,11.2c1,0.2,2-0.3,2.3-1.3c0.3-1-0.3-2-1.2-2.3l-3.4-1l-1.1,3.6L118.7,11.2z"
	/>
<path d="M131.5,12.3l-3.1-1.6c-0.2-0.1-0.3-0.4-0.2-0.6l1.2-2.3c0.1-0.2,0.4-0.3,0.6-0.2c0,0,0,0,0,0l9.6,4.8
	c0.2,0.1,0.3,0.4,0.2,0.6c0,0,0,0,0,0l-1.2,2.4c-0.1,0.2-0.4,0.3-0.6,0.2l-3.1-1.5l-5.8,11.5c-0.1,0.2-0.4,0.3-0.6,0.2l-2.6-1.3
	c-0.2-0.1-0.3-0.4-0.2-0.6L131.5,12.3z"/>
<path d="M143.9,15.4c0.2-0.2,0.4-0.2,0.6-0.1l2.3,1.8c0.2,0.1,0.2,0.4,0.1,0.6c0,0,0,0,0,0l-3.7,4.8l5.5,4.2l3.7-4.8
	c0.2-0.2,0.4-0.2,0.6-0.1l2.3,1.8c0.2,0.2,0.2,0.4,0.1,0.6l-9.8,12.7c-0.2,0.2-0.4,0.2-0.6,0.1l-2.3-1.8c-0.2-0.2-0.2-0.4-0.1-0.6
	c0,0,0,0,0,0l3.9-5l-5.5-4.2l-3.9,5c-0.2,0.2-0.4,0.2-0.6,0.1l-2.3-1.8c-0.2-0.2-0.2-0.4-0.1-0.7L143.9,15.4z"/>
<path d="M159.6,28c0.1-0.2,0.4-0.3,0.6-0.1c0.1,0,0.1,0.1,0.1,0.1l1.8,2.2c0.1,0.2,0.1,0.4,0,0.6l-5.1,6.7l0.1,0.1l9-2.3
	c0.2,0,0.4,0,0.5,0.2l0.3,0.3c0.1,0.1,0.1,0.3,0.1,0.5l-4.4,8.2l0.1,0.1l7.8-3.4c0.2-0.1,0.4,0,0.5,0.1l1.8,2.2
	c0.2,0.2,0.2,0.4,0,0.6c0,0-0.1,0.1-0.2,0.1l-15.6,6.5c-0.2,0.1-0.4,0-0.5-0.1l-0.2-0.3c-0.1-0.1-0.1-0.3-0.1-0.5l5-9.6v-0.1
	l-10.5,2.6c-0.2,0-0.3,0-0.5-0.2l-0.2-0.3c-0.1-0.2-0.1-0.4,0-0.5L159.6,28z"/>
<path d="M174.7,48.9c0.2-0.1,0.5-0.1,0.6,0.2c0,0,0,0,0,0.1l4.3,9c0.1,0.2,0,0.5-0.2,0.6l-2.4,1.1c-0.2,0.1-0.5,0-0.6-0.2l-2.9-6
	l-2.7,1.3l2.4,5c0.1,0.2,0,0.5-0.2,0.6l-2.4,1.1c-0.2,0.1-0.5,0-0.6-0.2l-2.4-5l-2.9,1.4l2.9,6c0.1,0.2,0,0.5-0.2,0.6c0,0,0,0,0,0
	l-2.4,1.1c-0.2,0.1-0.5,0-0.6-0.2l-4.3-9c-0.1-0.2,0-0.5,0.2-0.6c0,0,0,0,0,0L174.7,48.9z"/>
<path d="M167.4,66.7l2.2,0.5c0.3,0.1,0.4,0.4,0.4,0.8c-0.4,1.2-0.5,2.4-0.3,3.7c0.1,0.8,0.9,1.4,1.7,1.2c0,0,0.1,0,0.1,0
	c1-0.3,1.5-1.3,1.7-3.1c0.2-2.2,1.1-5.2,3.9-6c2.3-0.7,5.1,0.5,6.1,4.1c0.5,1.8,0.4,3.7-0.3,5.5c-0.1,0.3-0.5,0.4-0.7,0.3L180,73
	c-0.3-0.1-0.6-0.4-0.5-0.7s0.9-2.3,0.4-3.7c-0.1-0.8-0.8-1.3-1.6-1.1c-0.9,0.2-1.3,1.1-1.5,3.2s-0.8,5.3-4,6.2
	c-2.4,0.7-5.4-0.7-6.4-4.1c-0.6-1.9-0.5-3.9,0.3-5.7C166.9,66.7,166.9,66.6,167.4,66.7z"/>
<path d="M182,81.1l-0.4-3.4c0-0.3,0.1-0.5,0.4-0.5l2.6-0.3c0.3,0,0.5,0.1,0.5,0.4l1.3,10.7c0,0.3-0.1,0.5-0.4,0.5l-2.6,0.3
	c-0.3,0-0.5-0.1-0.5-0.4l-0.4-3.4l-12.8,1.5c-0.2,0-0.5-0.2-0.5-0.4l-0.3-2.8c0-0.2,0.2-0.5,0.4-0.5L182,81.1z"/>
<path d="M14.7,114.9h-3.5c-0.3,0-0.5-0.2-0.5-0.5v-2.6c0-0.2,0.2-0.5,0.4-0.5c0,0,0,0,0,0H22c0.2,0,0.5,0.2,0.5,0.4c0,0,0,0,0,0v2.6
	c0,0.3-0.2,0.5-0.5,0.5h-3.4v12.9c0,0.2-0.2,0.4-0.5,0.4h-2.9c-0.2,0-0.4-0.2-0.5-0.4L14.7,114.9z"/>
<path d="M24.9,111.8c0-0.2,0.2-0.5,0.4-0.5c0,0,0,0,0,0h7.2c2.9,0,5.2,2.3,5.3,5.2c-0.1,2.2-1.5,4.1-3.6,4.9l3.3,6.1
	c0.1,0.2,0.1,0.5-0.2,0.6c-0.1,0-0.2,0.1-0.3,0.1h-3.2c-0.2,0-0.3-0.1-0.4-0.2l-3.2-6.4h-1.7v6.2c0,0.2-0.2,0.4-0.5,0.4h-2.9
	c-0.2,0-0.5-0.2-0.5-0.4c0,0,0,0,0,0L24.9,111.8z M32.2,118.5c1-0.1,1.8-0.9,1.8-1.9c0-1-0.8-1.8-1.8-1.8h-3.6v3.8L32.2,118.5z"/>
<path d="M38.9,127.6l7.6-16.3c0.1-0.2,0.2-0.3,0.4-0.3h0.2c0.2,0,0.3,0.1,0.4,0.3l7.6,16.3c0.1,0.2,0,0.5-0.2,0.6
	c-0.1,0-0.2,0.1-0.2,0H52c-0.4,0-0.6-0.1-0.8-0.6l-0.9-1.9h-6.6l-0.9,1.9c-0.1,0.4-0.5,0.6-0.9,0.6h-2.7c-0.2,0-0.4-0.1-0.5-0.4
	C38.8,127.7,38.8,127.7,38.9,127.6z M48.8,122.4l-1.8-4l0,0l-1.8,4H48.8z"/>
<path d="M53.5,111.9c-0.1-0.2,0-0.5,0.2-0.6c0.1,0,0.2-0.1,0.2,0h3.2c0.2,0,0.3,0.1,0.4,0.3l4,8.8h0.2l4-8.8
	c0.1-0.2,0.2-0.3,0.4-0.3h3.2c0.2,0,0.4,0.1,0.5,0.4c0,0.1,0,0.2,0,0.2l-7.6,16.3c-0.1,0.2-0.2,0.3-0.4,0.3h-0.2
	c-0.2,0-0.3-0.1-0.4-0.3L53.5,111.9z"/>
<path d="M71.7,111.8c0-0.3,0.2-0.5,0.5-0.4h10c0.2,0,0.5,0.2,0.5,0.4c0,0,0,0,0,0v2.6c0,0.3-0.2,0.5-0.5,0.5h-6.7v3H81
	c0.2,0,0.4,0.2,0.5,0.5v2.6c0,0.3-0.2,0.5-0.5,0.5h0h-5.5v3.3h6.7c0.3,0,0.5,0.2,0.5,0.5l0,0v2.6c0,0.2-0.2,0.5-0.4,0.5c0,0,0,0,0,0
	h-10c-0.3,0-0.5-0.2-0.5-0.4L71.7,111.8z"/>
<path d="M85.8,111.8c0-0.2,0.2-0.5,0.4-0.5c0,0,0,0,0,0h2.9c0.3,0,0.5,0.2,0.5,0.4v12.9h5.7c0.3,0,0.5,0.2,0.5,0.5l0,0v2.6
	c0,0.2-0.2,0.5-0.4,0.5c0,0,0,0,0,0h-9c-0.2,0-0.5-0.2-0.5-0.4c0,0,0,0,0,0L85.8,111.8z"/>
<path d="M111,111.1c2.2,0,4.3,0.8,5.9,2.3c0.2,0.1,0.2,0.4,0.1,0.6c0,0,0,0-0.1,0.1l-1.9,2c-0.2,0.2-0.5,0.2-0.7,0
	c-0.9-0.8-2-1.2-3.2-1.2c-2.7,0.1-4.7,2.4-4.6,5.1c0.1,2.5,2.1,4.5,4.6,4.6c0.7,0,1.5-0.1,2.2-0.4v-1.4h-1.5c-0.2,0-0.4-0.2-0.5-0.4
	c0,0,0,0,0,0V120c0-0.2,0.2-0.4,0.4-0.5c0,0,0,0,0,0h4.9c0.2,0,0.4,0.2,0.4,0.5v6.5c0,0.2-0.1,0.3-0.2,0.4c-1.8,1-3.9,1.6-6,1.6
	c-4.8,0-8.7-3.9-8.7-8.7c0-4.8,3.9-8.7,8.7-8.7c0,0,0,0,0,0L111,111.1z"/>
<path d="M120.3,111.8c0-0.3,0.2-0.5,0.5-0.4h3c0.2,0,0.4,0.2,0.4,0.4v9.8c0,1.7,1.3,3,3,3c1.7,0,3-1.3,3-3v-9.8
	c0-0.2,0.2-0.4,0.4-0.4h3c0.3,0,0.5,0.2,0.5,0.4v10c0,3.8-3.1,6.9-6.9,6.9c-3.8,0-6.9-3.1-6.9-6.9L120.3,111.8z"/>
<path d="M137.9,111.8c0-0.2,0.2-0.4,0.5-0.4h2.9c0.3,0,0.5,0.2,0.5,0.4v16c0,0.3-0.2,0.5-0.5,0.4h-2.9c-0.2,0-0.4-0.2-0.5-0.4
	L137.9,111.8z"/>
<path d="M145.9,111.8c0-0.2,0.2-0.4,0.4-0.4c0,0,0,0,0,0h5.9c4.7,0,8.4,3.8,8.4,8.5s-3.8,8.4-8.4,8.4h-5.9c-0.2,0-0.4-0.2-0.4-0.4
	c0,0,0,0,0,0L145.9,111.8z M152,124.6c2.7,0,4.9-2.2,4.9-4.9c0-2.7-2.2-4.9-4.9-4.9h-2.3v9.8H152z"/>
<path d="M163.7,111.8c0-0.2,0.2-0.5,0.4-0.5c0,0,0,0,0,0h10c0.3,0,0.5,0.2,0.5,0.4v2.6c0,0.3-0.2,0.5-0.5,0.5h-6.7v3h5.5
	c0.2,0,0.4,0.2,0.5,0.5v2.6c0,0.3-0.2,0.5-0.5,0.5h0h-5.5v3.3h6.7c0.3,0,0.5,0.2,0.5,0.5v2.6c0,0.3-0.2,0.5-0.5,0.4h-10
	c-0.2,0-0.5-0.2-0.5-0.4c0,0,0,0,0,0V111.8z"/>
<path d="M129.1,55.3l-14.7,10.5l-24.7-28l-29.9,29l-8.4-3.2L26.1,94.1h129.2C155.4,94.1,135.7,65.3,129.1,55.3z M55.6,74.2l-2,5.3
	l-2.3-5.3L45,77.4l2.7-4.1l3.6-5.4l13.9,6.8L55.6,74.2z M94.4,52.1l-5.8,8.4l-3.2-6.8l-9.2,3.1l5.6-5.2l7.3-6.5l10.5,10.1L94.4,52.1
	z M126.1,70.6c-0.4-1.2-0.8-3-1.2-4l-3.9,4.8l0.4-3.2l-4.2,0.4l3.8-3l6.8-5l8.7,12.5l-7.6-7.1"/>
</svg>
