<svg id="Layer_1" data-name="Layer 1" xmlns="http://www.w3.org/2000/svg" viewBox="0 0 186.41 128.45"><path d="M3,93.12a.45.45,0,0,1-.37-.53l1.08-5.72a5.39,5.39,0,1,1,10.59,2l-.47,2.49,5.58,1a.48.48,0,0,1,.37.54l-.53,2.8a.45.45,0,0,1-.53.36Zm7.79-4.7A1.89,1.89,0,0,0,9.3,86.19a1.84,1.84,0,0,0-2.11,1.55L6.77,90l3.63.69Z" transform="translate(-2.65 -11.86)"/><path d="M20.3,85.68,7.77,72.85a.49.49,0,0,1-.1-.48l.08-.23a.49.49,0,0,1,.4-.29L26,70.54a.43.43,0,0,1,.45.61l-1,2.51c-.15.4-.35.53-.86.57l-2.09.14-2.33,6.15,1.5,1.5A.88.88,0,0,1,22,83L21,85.52A.42.42,0,0,1,20.3,85.68ZM19,74.56l-4.38.31v0L17.68,78Z" transform="translate(-2.65 -11.86)"/><path d="M16.72,54.46a8.13,8.13,0,0,1,5-3.75.45.45,0,0,1,.59.34L23,53.68a.41.41,0,0,1-.32.51,5,5,0,0,0-2.78,2.11,5,5,0,0,0,8.39,5.24A5.16,5.16,0,0,0,29,58.18a.47.47,0,0,1,.35-.52l2.7-.53a.47.47,0,0,1,.54.37,8.24,8.24,0,0,1-1.14,6.21,8.7,8.7,0,1,1-14.73-9.25Z" transform="translate(-2.65 -11.86)"/><path d="M23.57,46.28a.49.49,0,0,1-.05-.65l1.89-2.2a.49.49,0,0,1,.65,0L38.19,53.81a.47.47,0,0,1,.05.65l-1.89,2.19a.47.47,0,0,1-.65.05Z" transform="translate(-2.65 -11.86)"/><path d="M30,39.12a.46.46,0,0,1,0-.65l7.47-6.66a.46.46,0,0,1,.65,0l1.75,2a.46.46,0,0,1,0,.65l-5,4.46,2.31,2.59,4.11-3.66a.48.48,0,0,1,.65,0l1.76,2a.48.48,0,0,1,0,.65l-4.11,3.67,3.9,4.38a.48.48,0,0,1,0,.65l-2.13,1.89a.46.46,0,0,1-.65,0Z" transform="translate(-2.65 -11.86)"/><path d="M41.71,29.42a.46.46,0,0,1,.12-.63l2.4-1.63a.48.48,0,0,1,.64.12l9,13.25a.46.46,0,0,1-.12.63l-2.4,1.63a.47.47,0,0,1-.64-.12Z" transform="translate(-2.65 -11.86)"/><path d="M56.39,20.17a8.08,8.08,0,0,1,6.24-.5.46.46,0,0,1,.32.6l-.86,2.58a.42.42,0,0,1-.55.26,5,5,0,0,0-3.47.3,4.94,4.94,0,0,0,4.28,8.9,5.12,5.12,0,0,0,2.42-2.44.48.48,0,0,1,.58-.25l2.56,1a.48.48,0,0,1,.26.6,8.27,8.27,0,0,1-4.29,4.64,8.69,8.69,0,1,1-7.49-15.69Z" transform="translate(-2.65 -11.86)"/><path d="M73.16,14.49a.45.45,0,0,1,.38-.5l.59-.1,11,7.61h0L83.79,13a.45.45,0,0,1,.38-.53L87,12a.48.48,0,0,1,.53.38l2.61,16.05a.44.44,0,0,1-.38.5l-.38.07a.75.75,0,0,1-.33-.07L78.11,21h0l1.45,8.9a.44.44,0,0,1-.38.52l-2.83.47a.48.48,0,0,1-.53-.38Z" transform="translate(-2.65 -11.86)"/><path d="M102.05,11.89A8.7,8.7,0,1,1,92.79,20,8.67,8.67,0,0,1,102.05,11.89Zm-.94,13.5a4.84,4.84,0,1,0-4.46-5.14A4.86,4.86,0,0,0,101.11,25.39Z" transform="translate(-2.65 -11.86)"/><path d="M116.17,14.47a.47.47,0,0,1,.57-.31l6.93,2.05a5.16,5.16,0,0,1-1.24,10.14l1.43,6.82a.46.46,0,0,1-.59.56l-3.08-.91a.46.46,0,0,1-.31-.32l-1.26-7L117,25l-1.75,5.9a.47.47,0,0,1-.57.31l-2.76-.81a.47.47,0,0,1-.31-.57Zm5.15,8.58a1.93,1.93,0,0,0,2.3-1.33,1.85,1.85,0,0,0-1.23-2.28l-3.43-1L117.89,22Z" transform="translate(-2.65 -11.86)"/><path d="M134.11,24.12,131,22.57a.47.47,0,0,1-.2-.62L132,19.6a.46.46,0,0,1,.62-.2l9.58,4.81a.45.45,0,0,1,.21.61l-1.18,2.36a.47.47,0,0,1-.62.2l-3.09-1.55-5.78,11.53a.49.49,0,0,1-.62.21l-2.59-1.3a.48.48,0,0,1-.2-.62Z" transform="translate(-2.65 -11.86)"/><path d="M146.54,27.26a.48.48,0,0,1,.64-.09l2.28,1.76a.45.45,0,0,1,.08.64l-3.71,4.82,5.47,4.22L155,33.79a.47.47,0,0,1,.65-.09l2.27,1.76a.46.46,0,0,1,.09.64l-9.76,12.67a.47.47,0,0,1-.64.08l-2.28-1.75a.46.46,0,0,1-.08-.65l3.87-5-5.47-4.21-3.88,5a.46.46,0,0,1-.64.08l-2.28-1.75a.48.48,0,0,1-.08-.65Z" transform="translate(-2.65 -11.86)"/><path d="M162.23,39.91a.43.43,0,0,1,.73,0l1.75,2.22a.5.5,0,0,1,0,.56l-5.15,6.7.06.07,9-2.32a.48.48,0,0,1,.47.16l.26.34a.41.41,0,0,1,.05.49L165,56.31l.06.08L172.82,53a.49.49,0,0,1,.53.14l1.75,2.22a.42.42,0,0,1-.18.7l-15.59,6.46a.46.46,0,0,1-.53-.13l-.24-.31a.46.46,0,0,1-.05-.48l5-9.59,0-.06L153,54.56a.47.47,0,0,1-.46-.16l-.24-.3a.47.47,0,0,1,0-.55Z" transform="translate(-2.65 -11.86)"/><path d="M177.35,60.76A.45.45,0,0,1,178,61l4.33,9a.47.47,0,0,1-.22.62l-2.37,1.14a.46.46,0,0,1-.61-.22l-2.9-6-2.7,1.3,2.38,5a.46.46,0,0,1-.21.61l-2.38,1.14a.46.46,0,0,1-.61-.22l-2.38-5-2.95,1.41,2.9,6a.46.46,0,0,1-.22.62l-2.37,1.14a.46.46,0,0,1-.61-.22l-4.33-9a.45.45,0,0,1,.21-.61Z" transform="translate(-2.65 -11.86)"/><path d="M170,78.58l2.24.54a.63.63,0,0,1,.36.75,7.2,7.2,0,0,0-.34,3.67,1.5,1.5,0,0,0,1.85,1.2c1-.27,1.49-1.3,1.67-3.06.22-2.22,1.06-5.17,3.85-6,2.3-.65,5.13.48,6.15,4.06a8.93,8.93,0,0,1-.33,5.47c-.08.32-.51.39-.7.35l-2.13-.68c-.3-.09-.63-.45-.53-.7s.86-2.31.45-3.72a1.39,1.39,0,0,0-1.6-1.13c-.86.24-1.31,1.13-1.53,3.17s-.8,5.31-4,6.2c-2.4.69-5.4-.7-6.38-4.11a7.73,7.73,0,0,1,.31-5.74C169.51,78.58,169.59,78.49,170,78.58Z" transform="translate(-2.65 -11.86)"/><path d="M184.68,92.93l-.41-3.43a.46.46,0,0,1,.4-.51l2.62-.31a.46.46,0,0,1,.51.4l1.26,10.65a.46.46,0,0,1-.4.51l-2.62.31a.46.46,0,0,1-.51-.4l-.4-3.43-12.81,1.51a.47.47,0,0,1-.51-.4L171.47,95a.47.47,0,0,1,.4-.51Z" transform="translate(-2.65 -11.86)"/><path d="M17.37,126.72H13.92a.46.46,0,0,1-.46-.46v-2.64a.45.45,0,0,1,.46-.45H24.64a.45.45,0,0,1,.46.45v2.64a.46.46,0,0,1-.46.46H21.19v12.9a.47.47,0,0,1-.46.45h-2.9a.47.47,0,0,1-.46-.45Z" transform="translate(-2.65 -11.86)"/><path d="M27.52,123.62a.45.45,0,0,1,.46-.45H35.2a5.25,5.25,0,0,1,5.27,5.21,5.31,5.31,0,0,1-3.58,4.86l3.31,6.13a.46.46,0,0,1-.41.7H36.58a.45.45,0,0,1-.39-.21L33,133.46H31.31v6.16a.47.47,0,0,1-.46.45H28a.45.45,0,0,1-.46-.45Zm7.37,6.77a1.93,1.93,0,0,0,1.83-1.93,1.85,1.85,0,0,0-1.83-1.84H31.31v3.77Z" transform="translate(-2.65 -11.86)"/><path d="M41.53,139.45l7.56-16.26a.51.51,0,0,1,.41-.27h.25a.49.49,0,0,1,.41.27l7.56,16.26a.42.42,0,0,1-.41.62H54.62c-.43,0-.62-.14-.84-.6l-.87-1.91H46.34l-.87,1.93a.9.9,0,0,1-.87.58H41.94A.42.42,0,0,1,41.53,139.45Zm9.93-5.17-1.84-4h0l-1.81,4Z" transform="translate(-2.65 -11.86)"/><path d="M56.17,123.79a.42.42,0,0,1,.41-.62H59.8a.48.48,0,0,1,.41.26l4,8.82h.15l4-8.82a.48.48,0,0,1,.41-.26H72a.42.42,0,0,1,.41.62l-7.59,16.26a.44.44,0,0,1-.41.27h-.24a.46.46,0,0,1-.41-.27Z" transform="translate(-2.65 -11.86)"/><path d="M74.34,123.62a.46.46,0,0,1,.46-.45h10a.45.45,0,0,1,.46.45v2.64a.46.46,0,0,1-.46.46H78.11v3h5.51a.48.48,0,0,1,.46.46v2.63a.46.46,0,0,1-.46.46H78.11v3.26H84.8a.46.46,0,0,1,.46.46v2.64a.45.45,0,0,1-.46.45h-10a.46.46,0,0,1-.46-.45Z" transform="translate(-2.65 -11.86)"/><path d="M88.5,123.62a.45.45,0,0,1,.46-.45h2.87a.46.46,0,0,1,.46.45v12.9H98a.46.46,0,0,1,.46.46v2.64a.45.45,0,0,1-.46.45H89a.45.45,0,0,1-.46-.45Z" transform="translate(-2.65 -11.86)"/><path d="M113.65,123a9.28,9.28,0,0,1,5.89,2.27.42.42,0,0,1,0,.65l-1.91,2a.5.5,0,0,1-.65,0,4.47,4.47,0,0,0-3.16-1.16,4.85,4.85,0,0,0,0,9.69,5.7,5.7,0,0,0,2.15-.39v-1.4h-1.52a.43.43,0,0,1-.46-.43v-2.39a.44.44,0,0,1,.46-.46h4.86a.45.45,0,0,1,.43.46l0,6.49a.56.56,0,0,1-.19.39,12.21,12.21,0,0,1-6,1.57,8.67,8.67,0,1,1,0-17.34Z" transform="translate(-2.65 -11.86)"/><path d="M122.91,123.62a.46.46,0,0,1,.46-.45h3a.45.45,0,0,1,.45.45v9.79a3,3,0,1,0,6,0v-9.79a.45.45,0,0,1,.45-.45h3a.46.46,0,0,1,.46.45v10a6.88,6.88,0,0,1-13.76,0Z" transform="translate(-2.65 -11.86)"/><path d="M140.57,123.62a.47.47,0,0,1,.46-.45h2.89a.46.46,0,0,1,.46.45v16a.46.46,0,0,1-.46.45H141a.47.47,0,0,1-.46-.45Z" transform="translate(-2.65 -11.86)"/><path d="M148.54,123.62a.44.44,0,0,1,.43-.45h5.9a8.45,8.45,0,1,1,0,16.9H149a.44.44,0,0,1-.43-.45Zm6.09,12.88a4.89,4.89,0,0,0,0-9.78h-2.32v9.78Z" transform="translate(-2.65 -11.86)"/><path d="M166.3,123.62a.45.45,0,0,1,.46-.45h10a.46.46,0,0,1,.46.45v2.64a.47.47,0,0,1-.46.46h-6.69v3h5.5a.48.48,0,0,1,.46.46v2.63a.46.46,0,0,1-.46.46h-5.5v3.26h6.69a.47.47,0,0,1,.46.46v2.64a.46.46,0,0,1-.46.45h-10a.45.45,0,0,1-.46-.45Z" transform="translate(-2.65 -11.86)"/><path d="M131.73,67.16,117,77.66,98.11,50.35,62.4,78.71,54,75.56,28.78,106H158S135.93,77.66,131.73,67.16Zm-74.58,20L54,93.42V86.07l-6.3,3.15,2.71-4.06L54,79.76,66.6,89.22ZM97.06,64l-3.15,8.4-3.15-5.25-9.45,3.15,5.25-4.2L96,57.7l6.31,9.46Zm31.52,17.85a10.58,10.58,0,0,0-1.05-3.15L124.38,84V80.81l-2.11,2.1,2.11-4.2,5.25-6.3L137,85l-6.3-6.31S128.58,82.91,128.58,81.86Z" transform="translate(-2.65 -11.86)"/></svg>