<svg id="Layer_1" data-name="Layer 1" xmlns="http://www.w3.org/2000/svg" viewBox="0 0 186.44 128.63"><defs><style>.cls-1{fill:#fff;}</style></defs><path class="cls-1" d="M.35,81.26A.45.45,0,0,1,0,80.74H0L1.06,75A5.39,5.39,0,1,1,11.7,76.77c0,.08,0,.16,0,.24l-.47,2.49,5.58,1a.47.47,0,0,1,.37.54l-.53,2.8a.44.44,0,0,1-.52.36h0Zm7.79-4.7a1.89,1.89,0,0,0-1.48-2.23h0a1.84,1.84,0,0,0-2.11,1.53v0l-.42,2.26,3.63.69Z" transform="translate(0.03 -0.01)"/><path class="cls-1" d="M17.65,73.82,5.12,61a.49.49,0,0,1-.1-.48l.08-.23A.49.49,0,0,1,5.5,60l17.85-1.31a.44.44,0,0,1,.49.36.43.43,0,0,1,0,.25l-1,2.51c-.15.4-.35.53-.86.57l-2.09.14-2.33,6.15,1.5,1.5a.89.89,0,0,1,.33,1l-1,2.52a.42.42,0,0,1-.53.27A.5.5,0,0,1,17.65,73.82ZM16.35,62.7,12,63h0L15,66.14Z" transform="translate(0.03 -0.01)"/><path class="cls-1" d="M14.07,42.6a8.1,8.1,0,0,1,5-3.75.45.45,0,0,1,.57.28.14.14,0,0,1,0,.06l.69,2.63a.41.41,0,0,1-.29.5h0a5,5,0,0,0-2.78,2.11,5,5,0,0,0,8.39,5.24,5.21,5.21,0,0,0,.71-3.36.47.47,0,0,1,.35-.52l2.7-.53a.47.47,0,0,1,.54.37,8.24,8.24,0,0,1-1.14,6.21,8.7,8.7,0,1,1-15-8.85C13.9,42.87,14,42.73,14.07,42.6Z" transform="translate(0.03 -0.01)"/><path class="cls-1" d="M20.92,34.42a.49.49,0,0,1-.05-.65l1.89-2.2a.5.5,0,0,1,.65,0L35.54,42a.47.47,0,0,1,.05.65L33.7,44.79a.47.47,0,0,1-.65.05Z" transform="translate(0.03 -0.01)"/><path class="cls-1" d="M27.35,27.26a.46.46,0,0,1,0-.65L34.82,20a.46.46,0,0,1,.65,0l1.75,2a.46.46,0,0,1,0,.65l-5,4.46,2.31,2.59L38.64,26a.48.48,0,0,1,.65,0l1.76,2a.48.48,0,0,1,0,.65l-4.11,3.67,3.9,4.38a.48.48,0,0,1,0,.65l-2.13,1.89a.46.46,0,0,1-.65,0Z" transform="translate(0.03 -0.01)"/><path class="cls-1" d="M39.06,17.56a.46.46,0,0,1,.12-.63l2.4-1.63a.48.48,0,0,1,.64.12l9,13.25a.46.46,0,0,1-.12.63l-2.4,1.63a.46.46,0,0,1-.64-.12Z" transform="translate(0.03 -0.01)"/><path class="cls-1" d="M53.74,8.31A8.07,8.07,0,0,1,60,7.81a.45.45,0,0,1,.33.56s0,0,0,0L59.44,11a.42.42,0,0,1-.53.27h0a5,5,0,0,0-3.47.3,4.94,4.94,0,0,0,4.28,8.9A5.12,5.12,0,0,0,62.12,18a.48.48,0,0,1,.58-.25l2.56,1a.48.48,0,0,1,.26.6A8.28,8.28,0,0,1,61.23,24,8.69,8.69,0,0,1,53.74,8.31Z" transform="translate(0.03 -0.01)"/><path class="cls-1" d="M70.51,2.63a.45.45,0,0,1,.38-.5l.59-.1,11,7.61h0l-1.34-8.5A.45.45,0,0,1,81.5.61h0L84.35.14a.48.48,0,0,1,.53.38l2.61,16.05a.44.44,0,0,1-.37.5h0l-.38.07a.75.75,0,0,1-.33-.07L75.46,9.14h0L76.91,18a.44.44,0,0,1-.35.52h0L73.7,19a.48.48,0,0,1-.53-.38Z" transform="translate(0.03 -0.01)"/><path class="cls-1" d="M99.4,0a9.3,9.3,0,1,1-.07,0Zm-.94,13.5A4.84,4.84,0,1,0,94,8.33v.06A4.86,4.86,0,0,0,98.46,13.53Z" transform="translate(0.03 -0.01)"/><path class="cls-1" d="M113.52,2.61a.47.47,0,0,1,.57-.31L121,4.35a5.16,5.16,0,0,1-1.24,10.14l1.43,6.82a.46.46,0,0,1-.32.57.5.5,0,0,1-.27,0L117.54,21a.47.47,0,0,1-.31-.32l-1.26-7-1.62-.5L112.6,19a.47.47,0,0,1-.57.31l-2.76-.81A.47.47,0,0,1,109,18Zm5.15,8.58A1.93,1.93,0,0,0,121,9.86a1.85,1.85,0,0,0-1.23-2.28l-3.43-1-1.07,3.56Z" transform="translate(0.03 -0.01)"/><path class="cls-1" d="M131.46,12.26l-3.11-1.55a.47.47,0,0,1-.2-.62l1.2-2.35a.45.45,0,0,1,.62-.2h0l9.58,4.81a.46.46,0,0,1,.22.6h0l-1.18,2.36a.47.47,0,0,1-.62.2L134.87,14,129.09,25.5a.49.49,0,0,1-.62.21l-2.59-1.3a.47.47,0,0,1-.2-.62Z" transform="translate(0.03 -0.01)"/><path class="cls-1" d="M143.89,15.4a.48.48,0,0,1,.64-.09l2.28,1.76a.45.45,0,0,1,.09.63h0l-3.71,4.82,5.47,4.22,3.7-4.82a.47.47,0,0,1,.65-.09l2.27,1.76a.46.46,0,0,1,.09.64L145.6,36.91A.47.47,0,0,1,145,37l-2.28-1.75a.46.46,0,0,1-.08-.65h0l3.87-5L141,25.38l-3.88,5a.46.46,0,0,1-.64.08l-2.28-1.75a.48.48,0,0,1-.08-.65Z" transform="translate(0.03 -0.01)"/><path class="cls-1" d="M159.58,28.05a.44.44,0,0,1,.59-.14.38.38,0,0,1,.14.14l1.75,2.22a.52.52,0,0,1,0,.56l-5.15,6.7.06.07,9-2.32a.47.47,0,0,1,.47.16l.26.34a.42.42,0,0,1,.05.49l-4.4,8.18.06.08,7.76-3.39a.48.48,0,0,1,.53.14l1.75,2.22a.42.42,0,0,1-.18.7l-15.59,6.46a.46.46,0,0,1-.53-.13l-.24-.31a.44.44,0,0,1,0-.48l5-9.59v-.06L150.35,42.7a.47.47,0,0,1-.46-.16l-.24-.3a.47.47,0,0,1,0-.55Z" transform="translate(0.03 -0.01)"/><path class="cls-1" d="M174.7,48.9a.45.45,0,0,1,.61.16.3.3,0,0,1,0,.08l4.33,9a.47.47,0,0,1-.22.62l-2.37,1.14a.46.46,0,0,1-.61-.22l-2.9-6-2.7,1.3,2.38,5a.46.46,0,0,1-.21.61l-2.38,1.14a.46.46,0,0,1-.61-.22l-2.38-5-3,1.41,2.9,6a.47.47,0,0,1-.21.62h0L165,65.68a.46.46,0,0,1-.61-.22l-4.33-9a.45.45,0,0,1,.2-.6h0Z" transform="translate(0.03 -0.01)"/><path class="cls-1" d="M167.35,66.72l2.24.54A.63.63,0,0,1,170,68a7.16,7.16,0,0,0-.34,3.67,1.5,1.5,0,0,0,1.73,1.23l.12,0c1-.27,1.49-1.3,1.67-3.06.22-2.22,1.06-5.17,3.85-6,2.3-.65,5.13.48,6.15,4.06a8.9,8.9,0,0,1-.33,5.47c-.08.32-.51.39-.7.35L180,73c-.3-.09-.63-.45-.53-.7a7,7,0,0,0,.45-3.72,1.39,1.39,0,0,0-1.6-1.13c-.86.24-1.31,1.13-1.53,3.17s-.8,5.31-4,6.2c-2.4.69-5.4-.7-6.38-4.11a7.71,7.71,0,0,1,.31-5.74C166.86,66.72,166.94,66.63,167.35,66.72Z" transform="translate(0.03 -0.01)"/><path class="cls-1" d="M182,81.07l-.41-3.43a.46.46,0,0,1,.4-.51l2.62-.31a.46.46,0,0,1,.51.4l1.26,10.65a.46.46,0,0,1-.4.51l-2.62.31a.46.46,0,0,1-.51-.4l-.4-3.43-12.81,1.51a.47.47,0,0,1-.51-.4l-.34-2.83a.47.47,0,0,1,.4-.51Z" transform="translate(0.03 -0.01)"/><path class="cls-1" d="M14.72,114.86H11.27a.47.47,0,0,1-.46-.46v-2.64a.45.45,0,0,1,.45-.45H22a.45.45,0,0,1,.46.44h0v2.64a.47.47,0,0,1-.46.46H18.54v12.9a.47.47,0,0,1-.46.45h-2.9a.47.47,0,0,1-.46-.45Z" transform="translate(0.03 -0.01)"/><path class="cls-1" d="M24.87,111.76a.45.45,0,0,1,.45-.45h7.23a5.25,5.25,0,0,1,5.27,5.21,5.31,5.31,0,0,1-3.58,4.86l3.31,6.13a.46.46,0,0,1-.15.63.48.48,0,0,1-.26.07H33.93a.46.46,0,0,1-.39-.21l-3.19-6.4H28.66v6.16a.47.47,0,0,1-.46.45H25.35a.45.45,0,0,1-.46-.44h0Zm7.37,6.77a1.93,1.93,0,0,0,1.83-1.93,1.85,1.85,0,0,0-1.83-1.84H28.66v3.77Z" transform="translate(0.03 -0.01)"/><path class="cls-1" d="M38.88,127.59l7.56-16.26a.51.51,0,0,1,.41-.27h.25a.48.48,0,0,1,.41.27l7.56,16.26a.42.42,0,0,1-.17.57.4.4,0,0,1-.24.05H52c-.43,0-.62-.14-.84-.6l-.87-1.91H43.69l-.87,1.93a.91.91,0,0,1-.87.58H39.29a.42.42,0,0,1-.46-.38A.4.4,0,0,1,38.88,127.59Zm9.93-5.17-1.84-4h0l-1.81,4Z" transform="translate(0.03 -0.01)"/><path class="cls-1" d="M53.52,111.93a.42.42,0,0,1,.17-.57.4.4,0,0,1,.24,0h3.22a.5.5,0,0,1,.41.26l4,8.82h.15l4-8.82a.5.5,0,0,1,.41-.26h3.23a.42.42,0,0,1,.46.38.4.4,0,0,1,0,.24l-7.59,16.26a.45.45,0,0,1-.41.27h-.24a.45.45,0,0,1-.41-.27Z" transform="translate(0.03 -0.01)"/><path class="cls-1" d="M71.69,111.76a.46.46,0,0,1,.46-.45h10a.45.45,0,0,1,.46.44h0v2.64a.47.47,0,0,1-.46.46H75.46v3H81a.48.48,0,0,1,.46.46V121a.47.47,0,0,1-.46.46H75.46v3.26h6.69a.47.47,0,0,1,.46.46h0v2.64a.45.45,0,0,1-.45.45h-10a.46.46,0,0,1-.46-.45Z" transform="translate(0.03 -0.01)"/><path class="cls-1" d="M85.85,111.76a.45.45,0,0,1,.45-.45h2.88a.46.46,0,0,1,.46.45v12.9h5.71a.47.47,0,0,1,.46.46h0v2.64a.45.45,0,0,1-.45.45h-9a.45.45,0,0,1-.46-.44h0Z" transform="translate(0.03 -0.01)"/><path class="cls-1" d="M111,111.14a9.32,9.32,0,0,1,5.89,2.27.42.42,0,0,1,.06.59l-.06.06-1.91,2a.5.5,0,0,1-.65,0,4.49,4.49,0,0,0-3.16-1.16,4.85,4.85,0,0,0,0,9.69,5.61,5.61,0,0,0,2.15-.39v-1.4H111.8a.43.43,0,0,1-.46-.4V120a.44.44,0,0,1,.42-.46h4.9a.45.45,0,0,1,.43.46v6.49a.58.58,0,0,1-.19.39,12.24,12.24,0,0,1-6,1.57,8.67,8.67,0,1,1,0-17.34h0Z" transform="translate(0.03 -0.01)"/><path class="cls-1" d="M120.26,111.76a.46.46,0,0,1,.46-.45h3a.45.45,0,0,1,.45.45v9.79a3,3,0,1,0,6,0v-9.79a.45.45,0,0,1,.45-.45h3a.46.46,0,0,1,.46.45v10a6.88,6.88,0,1,1-13.76,0Z" transform="translate(0.03 -0.01)"/><path class="cls-1" d="M137.92,111.76a.47.47,0,0,1,.46-.45h2.89a.46.46,0,0,1,.46.45v16a.46.46,0,0,1-.46.45h-2.92a.47.47,0,0,1-.46-.45Z" transform="translate(0.03 -0.01)"/><path class="cls-1" d="M145.89,111.76a.44.44,0,0,1,.43-.45h5.9a8.45,8.45,0,0,1,0,16.9h-5.87a.44.44,0,0,1-.43-.45h0ZM152,124.64a4.89,4.89,0,1,0,0-9.78h-2.32v9.78Z" transform="translate(0.03 -0.01)"/><path class="cls-1" d="M163.65,111.76a.45.45,0,0,1,.45-.45h10a.46.46,0,0,1,.46.45v2.64a.48.48,0,0,1-.46.46h-6.69v3h5.5a.48.48,0,0,1,.46.46V121a.47.47,0,0,1-.46.46h-5.5v3.26h6.69a.48.48,0,0,1,.46.46v2.64a.46.46,0,0,1-.46.45h-10a.45.45,0,0,1-.46-.44h0Z" transform="translate(0.03 -0.01)"/><path class="cls-1" d="M129.08,55.3,114.35,65.8,89.6,37.8,59.75,66.85l-8.4-3.15L26.13,94.14H155.35S135.75,65.26,129.08,55.3ZM55.63,74.17l-2,5.3-2.29-5.26-6.3,3.15,2.71-4.06,3.59-5.4,13.93,6.83Zm38.78-22-5.8,8.4-3.17-6.76-9.22,3.07,5.63-5.23,7.31-6.47L99.66,55.3Zm31.67,18.43c-.4-1.17-.81-3-1.18-4l-3.85,4.81.44-3.16-4.2.41,3.79-3,6.77-5,8.72,12.47L128.94,66" transform="translate(0.03 -0.01)"/></svg>